<?xml version="1.0" encoding="UTF-8" standalone="no"?>
<svg
   xmlns:dc="http://purl.org/dc/elements/1.1/"
   xmlns:cc="http://creativecommons.org/ns#"
   xmlns:rdf="http://www.w3.org/1999/02/22-rdf-syntax-ns#"
   xmlns:svg="http://www.w3.org/2000/svg"
   xmlns="http://www.w3.org/2000/svg"
   xmlns:sodipodi="http://sodipodi.sourceforge.net/DTD/sodipodi-0.dtd"
   xmlns:inkscape="http://www.inkscape.org/namespaces/inkscape"
   width="160"
   height="160"
   viewBox="0 0 42.333332 42.333335"
   version="1.1"
   id="svg8"
   inkscape:version="1.0.1 (3bc2e813f5, 2020-09-07)"
   sodipodi:docname="order.svg">
  <defs
     id="defs2">
    <rect
       x="3.1183036"
       y="23.623512"
       width="35.151786"
       height="14.079613"
       id="rect835" />
    <filter
       inkscape:collect="always"
       style="color-interpolation-filters:sRGB"
       id="filter935"
       x="-0.025500003"
       width="1.051"
       y="-0.028687496"
       height="1.057375">
      <feGaussianBlur
         inkscape:collect="always"
         stdDeviation="0.26296872"
         id="feGaussianBlur937" />
    </filter>
  </defs>
  <sodipodi:namedview
     id="base"
     pagecolor="#ffffff"
     bordercolor="#666666"
     borderopacity="1.0"
     inkscape:pageopacity="0.0"
     inkscape:pageshadow="2"
     inkscape:zoom="2.8"
     inkscape:cx="27.957921"
     inkscape:cy="117.32142"
     inkscape:document-units="mm"
     inkscape:current-layer="text1466"
     inkscape:document-rotation="0"
     showgrid="false"
     units="px"
     inkscape:window-width="1920"
     inkscape:window-height="1017"
     inkscape:window-x="-8"
     inkscape:window-y="-8"
     inkscape:window-maximized="1" />
  <metadata
     id="metadata5">
    <rdf:RDF>
      <cc:Work
         rdf:about="">
        <dc:format>image/svg+xml</dc:format>
        <dc:type
           rdf:resource="http://purl.org/dc/dcmitype/StillImage" />
        <dc:title />
      </cc:Work>
    </rdf:RDF>
  </metadata>
  <g
     inkscape:label="Ebene 1"
     inkscape:groupmode="layer"
     id="layer1">
    <g
       aria-label="Order"
       id="text1466"
       style="font-weight:500;font-size:8.81944px;line-height:1.25;font-family:poppins;-inkscape-font-specification:'poppins Medium';fill:#000000;stroke-width:0.264583">
      <rect
         style="font-weight:500;font-size:8.81944px;line-height:1.25;font-family:poppins;-inkscape-font-specification:'poppins Medium';opacity:0.5;fill:#44d62c;fill-opacity:1;stroke-width:1;stroke-linecap:square;stroke-linejoin:bevel;stroke-opacity:0.565385;paint-order:stroke fill markers"
         id="rect841"
         width="53.578125"
         height="47.908482"
         x="-4.3939724"
         y="-1.7481397" />
      <path
         d="m 12.150672,37.376121 q -0.855485,0 -1.578679,-0.396875 Q 9.8576179,36.573552 9.4342848,35.859177 9.0197712,35.135983 9.0197712,34.2364 q 0,-0.899583 0.4145136,-1.613958 0.4233331,-0.714374 1.1377082,-1.111249 0.723194,-0.405694 1.578679,-0.405694 0.864305,0 1.57868,0.405694 0.723194,0.396875 1.137708,1.111249 0.414513,0.714375 0.414513,1.613958 0,0.899583 -0.414513,1.622777 -0.414514,0.714375 -1.137708,1.120069 -0.714375,0.396875 -1.57868,0.396875 z m 0,-0.873125 q 0.608542,0 1.084791,-0.273403 0.47625,-0.282222 0.740833,-0.793749 0.273403,-0.520347 0.273403,-1.199444 0,-0.679097 -0.273403,-1.190624 -0.264583,-0.511528 -0.740833,-0.784931 -0.476249,-0.273402 -1.084791,-0.273402 -0.608541,0 -1.084791,0.273402 -0.47625,0.273403 -0.749652,0.784931 -0.264583,0.511527 -0.264583,1.190624 0,0.679097 0.264583,1.199444 0.273402,0.511527 0.749652,0.793749 0.47625,0.273403 1.084791,0.273403 z"
         style="font-size:8.81944px;fill:#000000;stroke-width:0.264583"
         id="path2065" />
      <path
         d="m 17.274754,33.160428 q 0.220486,-0.370416 0.582083,-0.573263 0.370416,-0.211667 0.873124,-0.211667 v 1.040694 h -0.255763 q -0.590903,0 -0.899583,0.299861 -0.299861,0.299861 -0.299861,1.040694 v 2.557637 h -1.005416 v -4.859511 h 1.005416 z"
         style="font-size:8.81944px;fill:#000000;stroke-width:0.264583"
         id="path2067" />
      <path
         d="m 19.320854,34.86258 q 0,-0.732013 0.299861,-1.296457 0.30868,-0.564445 0.829027,-0.873125 0.529166,-0.3175 1.172986,-0.3175 0.476249,0 0.93486,0.211667 0.467431,0.202847 0.740833,0.546805 v -2.345971 h 1.014236 v 6.526385 h -1.014236 v -0.732013 q -0.246944,0.352778 -0.687916,0.582083 -0.432153,0.229305 -0.996597,0.229305 -0.635,0 -1.164166,-0.317499 -0.520347,-0.32632 -0.829027,-0.899583 -0.299861,-0.582083 -0.299861,-1.314097 z m 3.977567,0.01764 q 0,-0.502708 -0.211666,-0.873124 -0.202848,-0.370417 -0.537986,-0.564445 -0.335139,-0.194027 -0.723194,-0.194027 -0.388056,0 -0.723194,0.194027 -0.335139,0.185209 -0.546806,0.555625 -0.202847,0.361597 -0.202847,0.864305 0,0.502708 0.202847,0.881944 0.211667,0.379236 0.546806,0.582083 0.343958,0.194028 0.723194,0.194028 0.388055,0 0.723194,-0.194028 0.335138,-0.194027 0.537986,-0.564444 0.211666,-0.379236 0.211666,-0.881944 z"
         style="font-size:8.81944px;fill:#000000;stroke-width:0.264583"
         id="path2069" />
      <path
         d="m 30.089386,34.765566 q 0,0.273403 -0.03528,0.493889 h -3.712984 q 0.0441,0.582083 0.432152,0.934861 0.388056,0.352777 0.9525,0.352777 0.811388,0 1.146527,-0.679097 h 1.084791 q -0.220486,0.670278 -0.802569,1.10243 -0.573263,0.423333 -1.428749,0.423333 -0.696736,0 -1.252361,-0.30868 -0.546805,-0.3175 -0.864305,-0.881944 -0.30868,-0.573264 -0.30868,-1.322916 0,-0.749652 0.299861,-1.314096 0.30868,-0.573264 0.855486,-0.881944 0.555624,-0.308681 1.269999,-0.308681 0.687916,0 1.225902,0.299861 0.537986,0.299861 0.837847,0.846666 0.299861,0.537986 0.299861,1.243541 z m -1.049514,-0.3175 q -0.0088,-0.555624 -0.396874,-0.890763 -0.388056,-0.335139 -0.961319,-0.335139 -0.520347,0 -0.890764,0.335139 -0.370416,0.326319 -0.440972,0.890763 z"
         style="font-size:8.81944px;fill:#000000;stroke-width:0.264583"
         id="path2071" />
      <path
         d="m 32.082566,33.160428 q 0.220486,-0.370416 0.582084,-0.573263 0.370416,-0.211667 0.873124,-0.211667 v 1.040694 H 33.28201 q -0.590902,0 -0.899583,0.299861 -0.299861,0.299861 -0.299861,1.040694 v 2.557637 H 31.07715 v -4.859511 h 1.005416 z"
         style="font-size:8.81944px;fill:#000000;stroke-width:0.264583"
         id="path2073" />
    </g>
    <path
       d="M 29.935896,18.322426 31.967158,9.3849261 C 32.11381,8.7396208 31.623322,8.125125 30.96156,8.125125 H 14.084208 L 13.690356,6.1996949 c -0.09814,-0.479918 -0.520437,-0.82457 -1.010324,-0.82457 H 8.2744894 c -0.569551,0 -1.03125,0.461699 -1.03125,1.03125 v 0.6875 c 0,0.569551 0.461699,1.0312501 1.03125,1.0312501 h 3.0027846 l 3.018469,14.756972 c -0.722133,0.415293 -1.208754,1.193973 -1.208754,2.086777 0,1.328937 1.077313,2.406251 2.40625,2.406251 1.328938,0 2.406251,-1.077314 2.406251,-2.406251 0,-0.673492 -0.27702,-1.281972 -0.722907,-1.718749 h 9.00827 c -0.445844,0.436777 -0.722864,1.045257 -0.722864,1.718749 0,1.328937 1.077314,2.406251 2.406251,2.406251 1.328937,0 2.406251,-1.077314 2.406251,-2.406251 0,-0.952703 -0.553782,-1.775984 -1.356911,-2.165839 l 0.237059,-1.04311 c 0.146652,-0.645303 -0.343837,-1.2598 -1.005599,-1.2598 H 16.615454 l -0.28123,-1.374999 h 12.596075 c 0.481508,0 0.898906,-0.33318 1.005597,-0.8027 z"
       id="path909-8"
       style="opacity:0.5;fill:#000000;fill-opacity:1;stroke-width:0.0429686;filter:url(#filter935)" />
    <text
       xml:space="preserve"
       id="text833"
       style="line-height:1.25;font-family:Roboto;font-size:10.58333333px;-inkscape-font-specification:Roboto;white-space:pre;shape-inside:url(#rect835);font-weight:normal;font-style:normal;font-stretch:normal;font-variant:normal;" />
    <path
       d="M 29.652414,18.038944 31.683676,9.1014445 C 31.830328,8.4561395 31.33984,7.8416435 30.678078,7.8416435 H 13.800726 l -0.393852,-1.92543 c -0.09814,-0.479918 -0.520437,-0.82457 -1.010324,-0.82457 H 7.9910074 c -0.569551,0 -1.03125,0.461699 -1.03125,1.03125 v 0.6875 c 0,0.569551 0.461699,1.03125 1.03125,1.03125 h 3.0027846 l 3.018469,14.7569715 c -0.722133,0.415293 -1.208754,1.193973 -1.208754,2.086777 0,1.328937 1.077313,2.406251 2.40625,2.406251 1.328938,0 2.406251,-1.077314 2.406251,-2.406251 0,-0.673492 -0.27702,-1.281972 -0.722907,-1.718749 h 9.00827 c -0.445844,0.436777 -0.722864,1.045257 -0.722864,1.718749 0,1.328937 1.077314,2.406251 2.406251,2.406251 1.328937,0 2.406251,-1.077314 2.406251,-2.406251 0,-0.952703 -0.553782,-1.775984 -1.356911,-2.165839 l 0.237059,-1.04311 c 0.146652,-0.645303 -0.343837,-1.2598 -1.005599,-1.2598 H 16.331972 l -0.28123,-1.374999 h 12.596075 c 0.481508,0 0.898906,-0.33318 1.005597,-0.8027 z"
       id="path909"
       style="fill:#ffffff;fill-opacity:1;stroke-width:0.0429687" />
  </g>
</svg>
