<?xml version="1.0" encoding="UTF-8" standalone="no"?>
<svg
   xmlns:dc="http://purl.org/dc/elements/1.1/"
   xmlns:cc="http://creativecommons.org/ns#"
   xmlns:rdf="http://www.w3.org/1999/02/22-rdf-syntax-ns#"
   xmlns:svg="http://www.w3.org/2000/svg"
   xmlns="http://www.w3.org/2000/svg"
   xmlns:sodipodi="http://sodipodi.sourceforge.net/DTD/sodipodi-0.dtd"
   xmlns:inkscape="http://www.inkscape.org/namespaces/inkscape"
   width="160"
   height="160"
   viewBox="0 0 42.333332 42.333335"
   version="1.1"
   id="svg8"
   inkscape:version="1.0.1 (3bc2e813f5, 2020-09-07)"
   sodipodi:docname="linkedin.svg">
  <defs
     id="defs2">
    <rect
       x="3.1183036"
       y="23.623512"
       width="35.151786"
       height="14.079613"
       id="rect835" />
    <filter
       inkscape:collect="always"
       style="color-interpolation-filters:sRGB"
       id="filter2187"
       x="-0.026999253"
       width="1.0539985"
       y="-0.027000747"
       height="1.0540015">
      <feGaussianBlur
         inkscape:collect="always"
         stdDeviation="0.24750653"
         id="feGaussianBlur2189" />
    </filter>
  </defs>
  <sodipodi:namedview
     id="base"
     pagecolor="#ffffff"
     bordercolor="#666666"
     borderopacity="1.0"
     inkscape:pageopacity="0.0"
     inkscape:pageshadow="2"
     inkscape:zoom="2.8"
     inkscape:cx="27.957921"
     inkscape:cy="74.464286"
     inkscape:document-units="mm"
     inkscape:current-layer="text2078"
     inkscape:document-rotation="0"
     showgrid="false"
     units="px"
     inkscape:window-width="1920"
     inkscape:window-height="1017"
     inkscape:window-x="1912"
     inkscape:window-y="-8"
     inkscape:window-maximized="1" />
  <metadata
     id="metadata5">
    <rdf:RDF>
      <cc:Work
         rdf:about="">
        <dc:format>image/svg+xml</dc:format>
        <dc:type
           rdf:resource="http://purl.org/dc/dcmitype/StillImage" />
        <dc:title />
      </cc:Work>
    </rdf:RDF>
  </metadata>
  <g
     inkscape:label="Ebene 1"
     inkscape:groupmode="layer"
     id="layer1">
    <g
       aria-label="Join us"
       id="text2078"
       style="font-weight:500;font-size:8.81944px;line-height:1.25;font-family:poppins;-inkscape-font-specification:'poppins Medium';fill:#000000;stroke-width:0.264583">
      <rect
         style="font-weight:500;font-size:8.81944px;line-height:1.25;font-family:poppins;-inkscape-font-specification:'poppins Medium';opacity:0.5;fill:#44d62c;fill-opacity:1;stroke-width:1;stroke-linecap:square;stroke-linejoin:bevel;stroke-opacity:0.565385;paint-order:stroke fill markers"
         id="rect841"
         width="53.578125"
         height="47.908482"
         x="-5.2444196"
         y="-1.5591519" />
      <path
         d="m 9.0311101,31.449461 v 4.41854 q 0,0.820207 -0.5027081,1.296457 -0.4938886,0.47625 -1.3052771,0.47625 -0.8113885,0 -1.3140966,-0.47625 -0.4938886,-0.47625 -0.4938886,-1.296457 h 1.0142356 q 0.00882,0.405694 0.2028471,0.643819 0.2028471,0.238125 0.5909025,0.238125 0.3880553,0 0.5909025,-0.238125 0.2028471,-0.246945 0.2028471,-0.643819 v -4.41854 z"
         style="font-size:8.81944px;fill:#000000;stroke-width:0.264583"
         id="path2080" />
      <path
         d="m 12.770545,37.658347 q -0.687916,0 -1.243541,-0.308681 -0.555624,-0.317499 -0.873124,-0.881944 -0.3175,-0.573263 -0.3175,-1.322916 0,-0.740832 0.326319,-1.314096 0.326319,-0.573264 0.890764,-0.881944 0.564444,-0.30868 1.26118,-0.30868 0.696735,0 1.261179,0.30868 0.564445,0.30868 0.890764,0.881944 0.326319,0.573264 0.326319,1.314096 0,0.740833 -0.335139,1.314097 -0.335138,0.573264 -0.917221,0.890763 -0.573264,0.308681 -1.27,0.308681 z m 0,-0.873125 q 0.388056,0 0.723194,-0.185208 0.343959,-0.185208 0.555625,-0.555625 0.211667,-0.370416 0.211667,-0.899583 0,-0.529166 -0.202847,-0.890763 -0.202848,-0.370416 -0.537986,-0.555625 -0.335139,-0.185208 -0.723194,-0.185208 -0.388056,0 -0.723194,0.185208 -0.32632,0.185209 -0.520347,0.555625 -0.194028,0.361597 -0.194028,0.890763 0,0.784931 0.396875,1.217083 0.405694,0.423333 1.014235,0.423333 z"
         style="font-size:8.81944px;fill:#000000;stroke-width:0.264583"
         id="path2082" />
      <path
         d="m 16.801016,32.075641 q -0.273402,0 -0.458611,-0.185208 -0.185208,-0.185208 -0.185208,-0.458611 0,-0.273402 0.185208,-0.458611 0.185209,-0.185208 0.458611,-0.185208 0.264583,0 0.449792,0.185208 0.185208,0.185209 0.185208,0.458611 0,0.273403 -0.185208,0.458611 -0.185209,0.185208 -0.449792,0.185208 z m 0.493889,0.643819 v 4.859512 H 16.289489 V 32.71946 Z"
         style="font-size:8.81944px;fill:#000000;stroke-width:0.264583"
         id="path2084" />
      <path
         d="m 21.069625,32.640086 q 0.573264,0 1.023055,0.238124 0.458611,0.238125 0.714375,0.705556 0.255763,0.46743 0.255763,1.128888 v 2.866318 h -0.996596 v -2.716388 q 0,-0.652638 -0.32632,-0.996596 -0.326319,-0.352778 -0.890763,-0.352778 -0.564444,0 -0.899583,0.352778 -0.326319,0.343958 -0.326319,0.996596 v 2.716388 H 18.617821 V 32.71946 h 1.005416 v 0.555625 q 0.246944,-0.299861 0.62618,-0.46743 0.388055,-0.167569 0.820208,-0.167569 z"
         style="font-size:8.81944px;fill:#000000;stroke-width:0.264583"
         id="path2086" />
      <path
         d="m 31.035562,32.71946 v 4.859512 h -1.005416 v -0.573264 q -0.238125,0.299861 -0.62618,0.47625 -0.379236,0.167569 -0.811389,0.167569 -0.573263,0 -1.031874,-0.238124 -0.449792,-0.238125 -0.714375,-0.705556 -0.255764,-0.46743 -0.255764,-1.128888 V 32.71946 h 0.996597 v 2.707569 q 0,0.652638 0.326319,1.005416 0.32632,0.343958 0.890764,0.343958 0.564444,0 0.890763,-0.343958 0.335139,-0.352778 0.335139,-1.005416 V 32.71946 Z"
         style="font-size:8.81944px;fill:#000000;stroke-width:0.264583"
         id="path2088" />
      <path
         d="m 34.12235,37.658347 q -0.573263,0 -1.031874,-0.202847 -0.449792,-0.211667 -0.714375,-0.564444 -0.264583,-0.361597 -0.282222,-0.802569 h 1.040694 q 0.02646,0.30868 0.291042,0.520346 0.273402,0.202848 0.679096,0.202848 0.423334,0 0.652639,-0.15875 0.238125,-0.16757 0.238125,-0.423333 0,-0.273403 -0.264583,-0.405695 -0.255764,-0.132291 -0.820208,-0.291041 -0.546806,-0.149931 -0.890764,-0.291042 -0.343958,-0.141111 -0.599722,-0.432152 -0.246944,-0.291042 -0.246944,-0.767292 0,-0.388055 0.229306,-0.705555 0.229305,-0.326319 0.652638,-0.511527 0.432153,-0.185208 0.987777,-0.185208 0.829028,0 1.331736,0.423333 0.511527,0.414513 0.546805,1.137707 H 34.9161 q -0.02646,-0.326319 -0.264583,-0.520347 -0.238125,-0.194027 -0.643819,-0.194027 -0.396875,0 -0.608542,0.14993 -0.211666,0.149931 -0.211666,0.396875 0,0.194028 0.141111,0.326319 0.141111,0.132292 0.343958,0.211667 0.202847,0.07055 0.599722,0.185208 0.529166,0.141111 0.864305,0.291042 0.343958,0.141111 0.590902,0.423333 0.246945,0.282222 0.255764,0.749652 0,0.414514 -0.229305,0.740833 -0.229306,0.326319 -0.652639,0.511528 -0.414514,0.185208 -0.978958,0.185208 z"
         style="font-size:8.81944px;fill:#000000;stroke-width:0.264583"
         id="path2090" />
    </g>
    <text
       xml:space="preserve"
       id="text833"
       style="line-height:1.25;font-family:Roboto;font-size:10.58333333px;-inkscape-font-specification:Roboto;white-space:pre;shape-inside:url(#rect835);font-weight:normal;font-style:normal;font-stretch:normal;font-variant:normal;" />
    <path
       d="M 15.489167,27.337987 H 10.927849 V 12.649246 h 4.561318 z m -2.283115,-16.69242 c -1.458561,0 -2.641616,-1.2081018 -2.641616,-2.6666616 a 2.6416166,2.6416166 0 0 1 5.283233,0 c 0,1.4585598 -1.183548,2.6666616 -2.641617,2.6666616 z m 19.354664,16.69242 H 28.00922 V 20.1876 c 0,-1.70411 -0.03438,-3.889496 -2.371512,-3.889496 -2.371513,0 -2.734925,1.85144 -2.734925,3.766721 v 7.273162 H 18.346375 V 12.649246 h 4.374702 v 2.003681 h 0.06384 c 0.608962,-1.15408 2.096498,-2.372004 4.31577,-2.372004 4.616321,0 5.464938,3.039897 5.464938,6.988324 v 8.06874 z"
       id="path2161-1"
       style="opacity:0.5;fill:#000000;stroke-width:0.0491096;filter:url(#filter2187)" />
    <path
       d="M 15.205685,27.054505 H 10.644367 V 12.365764 h 4.561318 z M 12.92257,10.362084 c -1.458561,0 -2.641616,-1.2081008 -2.641616,-2.6666618 a 2.6416166,2.6416166 0 0 1 5.283233,0 c 0,1.458561 -1.183547,2.6666618 -2.641617,2.6666618 z m 19.354664,16.692421 h -4.551496 v -7.150387 c 0,-1.70411 -0.03438,-3.889496 -2.371512,-3.889496 -2.371513,0 -2.734925,1.85144 -2.734925,3.766721 v 7.273162 H 18.062893 V 12.365764 h 4.374702 v 2.00368 h 0.06384 c 0.608962,-1.15408 2.096498,-2.372003 4.31577,-2.372003 4.616321,0 5.464938,3.039896 5.464938,6.988324 v 8.06874 z"
       id="path2161"
       style="fill:#ffffff;stroke-width:0.0491097" />
  </g>
</svg>
