<?xml version="1.0" encoding="UTF-8" standalone="no"?>
<svg
   xmlns:dc="http://purl.org/dc/elements/1.1/"
   xmlns:cc="http://creativecommons.org/ns#"
   xmlns:rdf="http://www.w3.org/1999/02/22-rdf-syntax-ns#"
   xmlns:svg="http://www.w3.org/2000/svg"
   xmlns="http://www.w3.org/2000/svg"
   xmlns:sodipodi="http://sodipodi.sourceforge.net/DTD/sodipodi-0.dtd"
   xmlns:inkscape="http://www.inkscape.org/namespaces/inkscape"
   width="160"
   height="160"
   viewBox="0 0 42.333332 42.333335"
   version="1.1"
   id="svg8"
   inkscape:version="1.0.1 (3bc2e813f5, 2020-09-07)"
   sodipodi:docname="web.svg">
  <defs
     id="defs2">
    <rect
       x="3.1183036"
       y="23.623512"
       width="35.151786"
       height="14.079613"
       id="rect835" />
    <filter
       inkscape:collect="always"
       style="color-interpolation-filters:sRGB"
       id="filter895"
       x="-0.027000001"
       width="1.054"
       y="-0.026999999"
       height="1.054">
      <feGaussianBlur
         inkscape:collect="always"
         stdDeviation="0.24750001"
         id="feGaussianBlur897" />
    </filter>
  </defs>
  <sodipodi:namedview
     id="base"
     pagecolor="#ffffff"
     bordercolor="#666666"
     borderopacity="1.0"
     inkscape:pageopacity="0.0"
     inkscape:pageshadow="2"
     inkscape:zoom="2.8"
     inkscape:cx="27.957921"
     inkscape:cy="88.75"
     inkscape:document-units="mm"
     inkscape:current-layer="text2687"
     inkscape:document-rotation="0"
     showgrid="false"
     units="px"
     inkscape:window-width="1920"
     inkscape:window-height="1017"
     inkscape:window-x="1912"
     inkscape:window-y="-8"
     inkscape:window-maximized="1" />
  <metadata
     id="metadata5">
    <rdf:RDF>
      <cc:Work
         rdf:about="">
        <dc:format>image/svg+xml</dc:format>
        <dc:type
           rdf:resource="http://purl.org/dc/dcmitype/StillImage" />
        <dc:title />
      </cc:Work>
    </rdf:RDF>
  </metadata>
  <g
     inkscape:label="Ebene 1"
     inkscape:groupmode="layer"
     id="layer1">
    <path
       d="m 25.72723,16.027083 c 0,0.953906 -0.05157,1.873439 -0.141798,2.750001 h -7.966406 c -0.09023,-0.876562 -0.180468,-1.796095 -0.180468,-2.750002 0,-0.953905 0.09023,-1.873436 0.180468,-2.75 h 7.966406 c 0.09023,0.876564 0.141798,1.796095 0.141798,2.750001 z m 6.526953,-2.750001 c 0.227734,0.88086 0.348048,1.800392 0.348048,2.750001 0,0.949609 -0.120314,1.869141 -0.348048,2.750001 H 26.96473 c 0.09023,-0.885157 0.1375,-1.843359 0.1375,-2.750002 0,-0.945312 -0.04727,-1.864841 -0.1375,-2.75 z m -0.451171,-1.375 H 26.788558 C 26.358871,9.1580973 25.508089,6.8584101 24.412387,5.3898243 c 3.36875,0.8872183 6.101562,3.3299921 7.390625,6.5122577 z m -6.406641,0 H 17.80809 c 0.262109,-1.564063 0.666016,-2.9485155 1.160156,-4.0669921 0.451171,-1.0144922 0.953906,-1.7505466 1.439453,-2.2146093 0.48125,-0.4568441 0.880859,-0.5933985 1.194532,-0.5933985 0.313672,0 0.713281,0.1365544 1.19453,0.5933985 0.485547,0.4640627 0.988282,1.2001171 1.439453,2.2146093 0.494142,1.1184766 0.898048,2.5029291 1.160157,4.0669921 z m -13.994492,0 c 1.288203,-3.1822656 4.021445,-5.6250394 7.390195,-6.5122577 -1.095703,1.4685858 -1.946484,3.768273 -2.376173,6.5122577 z m 4.837851,1.375 c -0.09023,0.885159 -0.176173,1.804688 -0.176173,2.750001 0,0.906642 0.08594,1.864844 0.176173,2.750001 h -5.290956 c -0.226231,-0.88086 -0.346543,-1.800392 -0.346543,-2.750002 0,-0.949608 0.120312,-1.86914 0.346543,-2.75 z m 2.728516,10.939844 c -0.49414,-1.117187 -0.898047,-2.500779 -1.160156,-4.064844 h 7.588281 c -0.262109,1.564065 -0.666015,2.947657 -1.160157,4.064844 -0.451171,1.01836 -0.953906,1.753127 -1.439453,2.217188 -0.481249,0.455469 -0.880858,0.59297 -1.233203,0.59297 -0.275,0 -0.674609,-0.137501 -1.155859,-0.59297 -0.485547,-0.464061 -0.988282,-1.198828 -1.439453,-2.217188 z m -0.176172,2.449219 c -3.36875,-0.889453 -6.101992,-3.330077 -7.390195,-6.514063 h 5.014022 c 0.429689,2.745705 1.28047,5.044533 2.376173,6.514063 z m 5.620313,0 c 1.095702,-1.46953 1.946484,-3.768358 2.376171,-6.514062 h 5.014454 c -1.289063,3.183985 -4.021875,5.624609 -7.390625,6.514062 z"
       id="path853-5"
       style="opacity:0.5;fill:#000000;fill-opacity:1;stroke-width:0.0429686;filter:url(#filter895)" />
    <text
       xml:space="preserve"
       id="text833"
       style="line-height:1.25;font-family:Roboto;font-size:10.58333333px;-inkscape-font-specification:Roboto;white-space:pre;shape-inside:url(#rect835);font-weight:normal;font-style:normal;font-stretch:normal;font-variant:normal;" />
    <g
       aria-label="Web"
       transform="scale(0.99998191,1.0000181)"
       id="text841"
       style="font-size:8.8196px;line-height:1.25;font-family:poppins;-inkscape-font-specification:poppins;stroke-width:0.264588">
      <g
         aria-label="Web"
         transform="scale(1.0000181,0.9999819)"
         id="text2687"
         style="font-weight:500;font-size:8.81944px;line-height:1.25;font-family:poppins;-inkscape-font-specification:'poppins Medium';stroke-width:0.0700056">
        <rect
           style="font-weight:500;font-size:8.81944px;line-height:1.25;font-family:poppins;-inkscape-font-specification:'poppins Medium';opacity:0.5;fill:#44d62c;fill-opacity:1;stroke-width:1;stroke-linecap:square;stroke-linejoin:bevel;stroke-opacity:0.565385;paint-order:stroke fill markers"
           id="rect841"
           width="53.578125"
           height="47.908482"
           x="-6.1893606"
           y="-2.7875743" />
        <path
           d="m 20.190223,31.184878 -1.816805,6.12951 H 17.23571 l -1.287638,-4.639025 -1.367013,4.639025 -1.128888,0.0088 -1.73743,-6.13833 h 1.067152 l 1.27,4.991803 1.375832,-4.991803 h 1.128888 l 1.278819,4.965344 1.278819,-4.965344 z"
           style="font-size:8.81944px;stroke-width:0.0700056"
           id="path2721" />
        <path
           d="m 25.473056,34.76557 q 0,0.273403 -0.03528,0.493889 h -3.712984 q 0.0441,0.582083 0.432152,0.93486 0.388056,0.352778 0.9525,0.352778 0.811388,0 1.146527,-0.679097 h 1.084791 q -0.220486,0.670278 -0.802569,1.10243 -0.573264,0.423333 -1.428749,0.423333 -0.696736,0 -1.252361,-0.30868 -0.546805,-0.3175 -0.864305,-0.881944 -0.30868,-0.573264 -0.30868,-1.322916 0,-0.749653 0.299861,-1.314097 0.30868,-0.573263 0.855485,-0.881944 0.555625,-0.30868 1.27,-0.30868 0.687916,0 1.225902,0.299861 0.537986,0.299861 0.837847,0.846666 0.299861,0.537986 0.299861,1.243541 z m -1.049514,-0.3175 q -0.0088,-0.555624 -0.396875,-0.890763 -0.388055,-0.335139 -0.961318,-0.335139 -0.520347,0 -0.890764,0.335139 -0.370416,0.326319 -0.440972,0.890763 z"
           style="font-size:8.81944px;stroke-width:0.0700056"
           id="path2723" />
        <path
           d="m 27.466237,33.178071 q 0.255764,-0.352778 0.696736,-0.573264 0.449791,-0.229305 0.996597,-0.229305 0.643819,0 1.164166,0.30868 0.520347,0.308681 0.820208,0.881944 0.299861,0.564444 0.299861,1.296458 0,0.732013 -0.299861,1.314097 -0.299861,0.573263 -0.829028,0.899582 -0.520347,0.3175 -1.155346,0.3175 -0.564444,0 -1.005416,-0.220486 -0.432153,-0.220486 -0.687917,-0.564444 v 0.705555 h -1.005416 v -6.526385 h 1.005416 z m 2.954513,1.684513 q 0,-0.502708 -0.211667,-0.864305 -0.202847,-0.370417 -0.546805,-0.555625 -0.335139,-0.194028 -0.723194,-0.194028 -0.379236,0 -0.723194,0.194028 -0.335139,0.194028 -0.546806,0.564444 -0.202847,0.370417 -0.202847,0.873125 0,0.502708 0.202847,0.881944 0.211667,0.370416 0.546806,0.564444 0.343958,0.194028 0.723194,0.194028 0.388055,0 0.723194,-0.194028 0.343958,-0.202847 0.546805,-0.582083 0.211667,-0.379236 0.211667,-0.881944 z"
           style="font-size:8.81944px;stroke-width:0.0700056"
           id="path2725" />
      </g>
    </g>
    <path
       d="m 25.443748,15.7436 c 0,0.953907 -0.05157,1.873439 -0.141798,2.750001 h -7.966406 c -0.09023,-0.876562 -0.180468,-1.796094 -0.180468,-2.750001 0,-0.953906 0.09023,-1.873436 0.180468,-2.75 h 7.966406 c 0.09023,0.876564 0.141798,1.796094 0.141798,2.75 z m 6.526953,-2.75 c 0.227734,0.88086 0.348048,1.800391 0.348048,2.75 0,0.949609 -0.120314,1.869141 -0.348048,2.750001 h -5.289453 c 0.09023,-0.885157 0.1375,-1.843359 0.1375,-2.750001 0,-0.945313 -0.04727,-1.864842 -0.1375,-2.75 z M 31.51953,11.6186 H 26.505076 C 26.075389,8.8746158 25.224607,6.5749283 24.128905,5.1063425 27.497655,5.9935608 30.230467,8.4363346 31.51953,11.6186 Z m -6.406641,0 h -7.588281 c 0.262109,-1.564063 0.666016,-2.9485154 1.160156,-4.066992 0.451171,-1.0144921 0.953906,-1.7505465 1.439453,-2.2146092 0.48125,-0.4568441 0.880859,-0.5933985 1.194532,-0.5933985 0.313672,0 0.713281,0.1365544 1.19453,0.5933985 0.485547,0.4640627 0.988282,1.2001171 1.439453,2.2146092 0.494142,1.1184766 0.898048,2.502929 1.160157,4.066992 z m -13.994492,0 C 12.4066,8.4363346 15.139842,5.9935608 18.508592,5.1063425 17.412889,6.5749283 16.562108,8.8746158 16.132419,11.6186 Z m 4.837851,1.375 c -0.09023,0.885158 -0.176173,1.804687 -0.176173,2.75 0,0.906642 0.08594,1.864844 0.176173,2.750001 h -5.290956 c -0.226231,-0.88086 -0.346543,-1.800392 -0.346543,-2.750001 0,-0.949609 0.120312,-1.86914 0.346543,-2.75 z m 2.728516,10.939844 c -0.49414,-1.117187 -0.898047,-2.50078 -1.160156,-4.064844 h 7.588281 c -0.262109,1.564064 -0.666015,2.947657 -1.160157,4.064844 -0.451171,1.018359 -0.953906,1.753126 -1.439453,2.217188 -0.481249,0.455468 -0.880858,0.592969 -1.233203,0.592969 -0.275,0 -0.674609,-0.137501 -1.155859,-0.592969 -0.485547,-0.464062 -0.988282,-1.198829 -1.439453,-2.217188 z m -0.176172,2.449218 C 15.139842,25.493209 12.4066,23.052585 11.118397,19.8686 h 5.014022 c 0.429689,2.745704 1.28047,5.044532 2.376173,6.514062 z m 5.620313,0 c 1.095702,-1.46953 1.946484,-3.768358 2.376171,-6.514062 h 5.014454 c -1.289063,3.183985 -4.021875,5.624609 -7.390625,6.514062 z"
       id="path853"
       style="fill:#ffffff;fill-opacity:1;stroke-width:0.0429686" />
  </g>
</svg>
