<?xml version="1.0" encoding="utf-8"?>
<!-- Generator: Adobe Illustrator 24.1.0, SVG Export Plug-In . SVG Version: 6.00 Build 0)  -->
<svg version="1.1" xmlns="http://www.w3.org/2000/svg" xmlns:xlink="http://www.w3.org/1999/xlink" x="0px" y="0px"
	 viewBox="0 0 1318.27 346.74" style="enable-background:new 0 0 1318.27 346.74;" xml:space="preserve">
<style type="text/css">
	.st0{fill:#44D62C;}
	.st1{fill:#FFFFFF;}
</style>
<g id="RZ">
	<path class="st0" d="M992.84,337.81c68.75,0,124.48-55.73,124.48-124.48S1061.59,88.85,992.84,88.85
		c-68.75,0-124.48,55.73-124.48,124.48S924.1,337.81,992.84,337.81"/>
	<rect x="938.64" y="159.12" class="st1" width="108.42" height="108.42"/>
	<polygon class="st1" points="1318.27,94.97 1266.67,94.97 1218.1,176.06 1166.5,94.97 1110.56,94.97 1187.75,216.39 
		1110.56,333.91 1162.16,333.91 1210.73,252.81 1262.33,333.91 1318.27,333.91 1241.09,212.92 	"/>
	<g>
		<path class="st1" d="M314.43,94.97H265v238.94h49.43V94.97z M68.73,274.49c-12-14.45-18-34.54-18-60.28c0-25.73,6-45.75,18-60.06
			c11.99-14.31,28.11-21.46,48.35-21.46c14.45,0,26.45,3.33,35.99,9.98c6.22,4.34,11.22,9.9,15.23,16.45h55.35
			c-7.23-19.98-18.8-35.84-34.81-47.46c-18.93-13.73-42.86-20.6-71.76-20.6c-22.84,0-43.08,5.06-60.71,15.18
			c-17.64,10.12-31.44,24.5-41.42,43.15C4.99,168.04,0,189.65,0,214.22c0,24.58,4.99,46.18,14.96,64.83
			c9.98,18.64,23.78,33.1,41.42,43.36c17.63,10.27,37.87,15.39,60.71,15.39c28.33,0,52.04-7.16,71.12-21.47
			c16.64-12.48,28.65-28.75,36.05-48.81h-54.44c-10.24,19.08-27.8,28.64-52.73,28.64C96.84,296.18,80.72,288.96,68.73,274.49
			 M312.26,54.21c6.07-6.07,9.1-13.59,9.1-22.55c0-8.95-3.03-16.48-9.1-22.55C306.19,3.03,298.82,0,290.15,0
			c-8.96,0-16.48,3.03-22.55,9.11c-6.07,6.07-9.1,13.59-9.1,22.55c0,8.96,3.03,16.48,9.1,22.55c6.07,6.07,13.59,9.1,22.55,9.1
			C298.82,63.31,306.19,60.28,312.26,54.21 M542.11,159.12c-2.71-19.63-11.33-35.45-25.87-47.46c-16.63-13.73-38.53-20.6-65.69-20.6
			c-18.21,0-34.33,3.03-48.35,9.11c-14.03,6.07-24.79,14.38-32.31,24.93c-7.52,10.56-11.28,22.19-11.28,34.91
			c0,15.61,4.12,28.19,12.36,37.73c8.24,9.54,18,16.63,29.27,21.25c11.27,4.63,25.87,9.39,43.8,14.31
			c18.49,5.2,32.02,9.98,40.54,14.31c8.52,4.34,12.79,10.99,12.79,19.95c0,8.39-3.83,15.25-11.49,20.6
			c-7.67,5.35-18.43,8.02-32.31,8.02c-13.3,0-24.36-3.4-33.18-10.19c-6.73-5.18-11.1-11.34-13.2-18.45h-51.72
			c1.59,11.72,5.84,22.53,13.1,32.33c8.67,11.71,20.45,20.96,35.34,27.75c14.89,6.79,31.73,10.19,50.52,10.19
			c18.5,0,34.61-3.03,48.35-9.11c13.73-6.07,24.35-14.45,31.87-25.15c7.52-10.69,11.28-22.84,11.28-36.43
			c-0.3-15.32-4.49-27.6-12.57-36.86c-8.1-9.25-17.71-16.26-28.84-21.03c-11.13-4.77-25.37-9.47-42.71-14.09
			c-13.01-3.75-22.84-6.86-29.49-9.32c-6.66-2.45-12.29-5.85-16.91-10.19c-4.63-4.34-6.94-9.69-6.94-16.05
			c0-8.09,3.47-14.6,10.41-19.52c6.94-4.91,16.92-7.37,29.92-7.37c13.3,0,23.85,3.18,31.66,9.54c5.55,4.52,9.25,10.18,11.3,16.88
			H542.11z M783.1,213.35c0,16.48-3.4,30.94-10.19,43.36c-6.8,12.43-15.76,21.9-26.89,28.4c-11.13,6.51-23.06,9.76-35.78,9.76
			c-12.43,0-24.22-3.18-35.34-9.54c-11.13-6.36-20.1-15.68-26.89-27.97c-6.8-12.28-10.19-26.67-10.19-43.15
			c0-16.48,3.4-30.79,10.19-42.93c6.79-12.14,15.75-21.39,26.89-27.75c11.12-6.36,22.91-9.54,35.34-9.54
			c12.72,0,24.64,3.11,35.78,9.32c11.12,6.22,20.09,15.32,26.89,27.32C779.7,182.64,783.1,196.88,783.1,213.35 M833.41,213.35
			c0-23.99-4.92-45.32-14.74-63.96c-9.83-18.65-23.28-33.03-40.33-43.15c-17.06-10.12-36.14-15.18-57.24-15.18
			c-17.93,0-34.19,3.69-48.79,11.06c-14.6,7.37-26.09,16.85-34.47,28.4V13.01H588.4V333.9h49.43v-34.69
			c8.38,11.27,19.73,20.53,34.04,27.75c14.31,7.22,30.71,10.84,49.22,10.84c20.81,0,39.82-5.27,57.02-15.83
			c17.19-10.55,30.71-25.3,40.54-44.23C828.49,258.82,833.41,237.35,833.41,213.35"/>
	</g>
</g>
<g id="Claim">
</g>
</svg>
