<svg xmlns="http://www.w3.org/2000/svg" viewBox="0 0 1340 540" style="enable-background:new 0 0 1340 540" xml:space="preserve"><path d="M992.84 337.81c68.75 0 124.48-55.73 124.48-124.48S1061.59 88.85 992.84 88.85s-124.48 55.73-124.48 124.48 55.74 124.48 124.48 124.48" style="fill:#44d62c"/><path style="fill:#fff" d="M938.64 159.12h108.42v108.42H938.64z"/><path d="M1318.27 94.97h-51.6l-48.57 81.09-51.6-81.09h-55.94l77.19 121.42-77.19 117.52h51.6l48.57-81.1 51.6 81.1h55.94l-77.18-120.99zM314.43 94.97H265v238.94h49.43V94.97zM68.73 274.49c-12-14.45-18-34.54-18-60.28 0-25.73 6-45.75 18-60.06 11.99-14.31 28.11-21.46 48.35-21.46 14.45 0 26.45 3.33 35.99 9.98 6.22 4.34 11.22 9.9 15.23 16.45h55.35c-7.23-19.98-18.8-35.84-34.81-47.46-18.93-13.73-42.86-20.6-71.76-20.6-22.84 0-43.08 5.06-60.71 15.18-17.64 10.12-31.44 24.5-41.42 43.15C4.99 168.04 0 189.65 0 214.22c0 24.58 4.99 46.18 14.96 64.83 9.98 18.64 23.78 33.1 41.42 43.36 17.63 10.27 37.87 15.39 60.71 15.39 28.33 0 52.04-7.16 71.12-21.47 16.64-12.48 28.65-28.75 36.05-48.81h-54.44c-10.24 19.08-27.8 28.64-52.73 28.64-20.25.02-36.37-7.2-48.36-21.67M312.26 54.21c6.07-6.07 9.1-13.59 9.1-22.55 0-8.95-3.03-16.48-9.1-22.55C306.19 3.03 298.82 0 290.15 0c-8.96 0-16.48 3.03-22.55 9.11-6.07 6.07-9.1 13.59-9.1 22.55s3.03 16.48 9.1 22.55 13.59 9.1 22.55 9.1c8.67 0 16.04-3.03 22.11-9.1m229.85 104.91c-2.71-19.63-11.33-35.45-25.87-47.46-16.63-13.73-38.53-20.6-65.69-20.6-18.21 0-34.33 3.03-48.35 9.11-14.03 6.07-24.79 14.38-32.31 24.93-7.52 10.56-11.28 22.19-11.28 34.91 0 15.61 4.12 28.19 12.36 37.73 8.24 9.54 18 16.63 29.27 21.25 11.27 4.63 25.87 9.39 43.8 14.31 18.49 5.2 32.02 9.98 40.54 14.31 8.52 4.34 12.79 10.99 12.79 19.95 0 8.39-3.83 15.25-11.49 20.6-7.67 5.35-18.43 8.02-32.31 8.02-13.3 0-24.36-3.4-33.18-10.19-6.73-5.18-11.1-11.34-13.2-18.45h-51.72c1.59 11.72 5.84 22.53 13.1 32.33 8.67 11.71 20.45 20.96 35.34 27.75 14.89 6.79 31.73 10.19 50.52 10.19 18.5 0 34.61-3.03 48.35-9.11 13.73-6.07 24.35-14.45 31.87-25.15 7.52-10.69 11.28-22.84 11.28-36.43-.3-15.32-4.49-27.6-12.57-36.86-8.1-9.25-17.71-16.26-28.84-21.03-11.13-4.77-25.37-9.47-42.71-14.09-13.01-3.75-22.84-6.86-29.49-9.32-6.66-2.45-12.29-5.85-16.91-10.19-4.63-4.34-6.94-9.69-6.94-16.05 0-8.09 3.47-14.6 10.41-19.52 6.94-4.91 16.92-7.37 29.92-7.37 13.3 0 23.85 3.18 31.66 9.54 5.55 4.52 9.25 10.18 11.3 16.88h50.35zm240.99 54.23c0 16.48-3.4 30.94-10.19 43.36-6.8 12.43-15.76 21.9-26.89 28.4-11.13 6.51-23.06 9.76-35.78 9.76-12.43 0-24.22-3.18-35.34-9.54-11.13-6.36-20.1-15.68-26.89-27.97-6.8-12.28-10.19-26.67-10.19-43.15 0-16.48 3.4-30.79 10.19-42.93 6.79-12.14 15.75-21.39 26.89-27.75 11.12-6.36 22.91-9.54 35.34-9.54 12.72 0 24.64 3.11 35.78 9.32 11.12 6.22 20.09 15.32 26.89 27.32 6.79 12.01 10.19 26.25 10.19 42.72m50.31 0c0-23.99-4.92-45.32-14.74-63.96-9.83-18.65-23.28-33.03-40.33-43.15-17.06-10.12-36.14-15.18-57.24-15.18-17.93 0-34.19 3.69-48.79 11.06-14.6 7.37-26.09 16.85-34.47 28.4V13.01H588.4V333.9h49.43v-34.69c8.38 11.27 19.73 20.53 34.04 27.75 14.31 7.22 30.71 10.84 49.22 10.84 20.81 0 39.82-5.27 57.02-15.83 17.19-10.55 30.71-25.3 40.54-44.23 9.84-18.92 14.76-40.39 14.76-64.39"/><g><path d="M1333.67 512.13c1.76 0 3.26-.63 4.49-1.9s1.85-2.81 1.85-4.65c0-1.83-.62-3.37-1.85-4.64s-2.73-1.9-4.49-1.9c-1.83 0-3.38.63-4.65 1.9s-1.9 2.82-1.9 4.64c0 1.83.63 3.38 1.9 4.65s2.82 1.9 4.65 1.9m-25.11-29.66c0 4.36-.88 8.18-2.64 11.45-1.76 3.27-4.13 5.77-7.13 7.49-2.99 1.73-6.28 2.59-9.87 2.59-3.59 0-6.86-.86-9.82-2.59-2.96-1.72-5.32-4.22-7.08-7.49-1.76-3.28-2.64-7.13-2.64-11.56 0-4.36.88-8.16 2.64-11.4 1.76-3.24 4.12-5.7 7.08-7.39s6.23-2.53 9.82-2.53 6.88.86 9.87 2.59c2.99 1.73 5.37 4.2 7.13 7.44 1.76 3.24 2.64 7.04 2.64 11.4m-48.98-.11c0 5.84 1.2 11.05 3.59 15.63 2.39 4.58 5.68 8.13 9.87 10.66s8.85 3.8 13.99 3.8c5 0 9.36-1.11 13.09-3.33 3.73-2.21 6.54-5.05 8.44-8.5v10.87h9.71v-78.12h-9.71V464c-2.04-3.38-5-6.1-8.86-8.18-3.87-2.07-8.06-3.11-12.57-3.11-5.21 0-9.91 1.23-14.09 3.69s-7.48 5.93-9.87 10.4c-2.4 4.46-3.59 9.65-3.59 15.56m-23.03.11c0 4.36-.88 8.18-2.64 11.45-1.76 3.27-4.13 5.77-7.13 7.49-2.99 1.73-6.28 2.59-9.87 2.59-3.59 0-6.86-.86-9.82-2.59-2.96-1.72-5.32-4.22-7.08-7.49-1.76-3.28-2.64-7.13-2.64-11.56 0-4.36.88-8.16 2.64-11.4 1.76-3.24 4.12-5.7 7.08-7.39s6.23-2.53 9.82-2.53 6.88.86 9.87 2.59c2.99 1.73 5.37 4.2 7.13 7.44 1.76 3.24 2.64 7.04 2.64 11.4m-48.98-.11c0 5.84 1.2 11.05 3.59 15.63 2.39 4.58 5.66 8.13 9.82 10.66 4.15 2.53 8.8 3.8 13.94 3.8 4.99 0 9.38-1.11 13.14-3.33 3.77-2.21 6.6-5.01 8.5-8.39v10.76h9.71v-57.85h-9.71v10.56c-1.83-3.31-4.61-6.05-8.34-8.24-3.73-2.18-8.13-3.27-13.2-3.27-5.14 0-9.8 1.23-13.99 3.69s-7.48 5.93-9.87 10.4c-2.39 4.48-3.59 9.67-3.59 15.58m-19.95-4.01h-36.53c.49-5.49 2.44-9.78 5.86-12.88 3.41-3.1 7.55-4.65 12.4-4.65 3.38 0 6.46.69 9.24 2.06 2.78 1.37 4.97 3.37 6.6 6.02 1.62 2.64 2.43 5.79 2.43 9.45m9.92 2.01c0-5.28-1.14-10.01-3.43-14.2-2.29-4.19-5.54-7.48-9.77-9.87-4.22-2.39-9.08-3.59-14.57-3.59-5.63 0-10.61 1.21-14.94 3.64s-7.69 5.89-10.08 10.4-3.59 9.75-3.59 15.73 1.23 11.24 3.7 15.78 5.86 8.04 10.19 10.5c4.33 2.47 9.23 3.7 14.72 3.7 6.9 0 12.67-1.74 17.32-5.23 4.64-3.48 7.74-8.01 9.29-13.57h-10.34c-1.13 3.24-3.08 5.83-5.86 7.76-2.78 1.94-6.25 2.9-10.4 2.9-5.07 0-9.38-1.6-12.93-4.8-3.55-3.2-5.5-7.65-5.86-13.35h46.24c.21-2.04.31-3.97.31-5.8m-92.12-27.77c-4.15 0-7.9.81-11.24 2.43-3.35 1.62-5.96 3.91-7.86 6.87v-28.5h-9.61v78.12h9.61v-31.98c0-6.05 1.49-10.66 4.49-13.83 2.99-3.17 7.02-4.75 12.09-4.75 5 0 8.93 1.53 11.83 4.59 2.88 3.06 4.33 7.48 4.33 13.25v32.73h9.5v-34.1c0-5.35-1-9.89-3.01-13.62-2-3.73-4.77-6.53-8.29-8.39-3.54-1.88-7.48-2.82-11.84-2.82m-54.88 29.88c0 4.36-.88 8.18-2.64 11.45-1.76 3.27-4.14 5.77-7.13 7.49-2.99 1.73-6.28 2.59-9.87 2.59-3.59 0-6.87-.86-9.82-2.59-2.95-1.72-5.31-4.22-7.07-7.49-1.76-3.28-2.64-7.13-2.64-11.56 0-4.36.88-8.16 2.64-11.4 1.76-3.24 4.12-5.7 7.07-7.39 2.96-1.69 6.23-2.53 9.82-2.53s6.87.86 9.87 2.59c2.99 1.73 5.37 4.2 7.13 7.44 1.76 3.24 2.64 7.04 2.64 11.4m-48.98-.11c0 5.84 1.19 11.05 3.59 15.63 2.39 4.58 5.67 8.13 9.82 10.66 4.15 2.53 8.79 3.8 13.93 3.8 5 0 9.38-1.11 13.14-3.33 3.76-2.21 6.6-5.01 8.5-8.39v10.76h9.71v-57.85h-9.71v10.56c-1.83-3.31-4.61-6.05-8.34-8.24-3.73-2.18-8.13-3.27-13.2-3.27-5.14 0-9.8 1.23-13.99 3.69-4.19 2.46-7.48 5.93-9.87 10.4-2.39 4.48-3.58 9.67-3.58 15.58m-49.3-4.01h-36.53c.49-5.49 2.44-9.78 5.86-12.88 3.42-3.1 7.55-4.65 12.41-4.65 3.38 0 6.46.69 9.23 2.06 2.78 1.37 4.98 3.37 6.6 6.02 1.62 2.64 2.43 5.79 2.43 9.45m9.92 2.01c0-5.28-1.14-10.01-3.43-14.2-2.29-4.19-5.54-7.48-9.77-9.87-4.22-2.39-9.08-3.59-14.57-3.59-5.63 0-10.61 1.21-14.94 3.64s-7.69 5.89-10.08 10.4c-2.39 4.5-3.59 9.75-3.59 15.73s1.23 11.24 3.7 15.78c2.46 4.54 5.86 8.04 10.18 10.5 4.33 2.47 9.24 3.7 14.73 3.7 6.89 0 12.67-1.74 17.31-5.23 4.65-3.48 7.74-8.01 9.29-13.57h-10.35c-1.13 3.24-3.08 5.83-5.86 7.76-2.78 1.94-6.25 2.9-10.4 2.9-5.07 0-9.38-1.6-12.93-4.8-3.56-3.2-5.51-7.65-5.86-13.35h46.24c.23-2.04.33-3.97.33-5.8m-120.6 2.11c0 6.05 1.2 11.33 3.59 15.83 2.39 4.5 5.72 7.99 9.98 10.45 4.26 2.47 9.13 3.7 14.62 3.7 6.96 0 12.77-1.78 17.42-5.33 4.64-3.55 7.74-8.29 9.29-14.2h-10.34c-1.06 3.66-2.99 6.48-5.81 8.45-2.82 1.97-6.33 2.95-10.55 2.95-5.49 0-9.92-1.9-13.3-5.7-3.38-3.8-5.07-9.19-5.07-16.15 0-6.9 1.69-12.23 5.07-16 3.38-3.76 7.81-5.65 13.3-5.65 4.22 0 7.76 1.02 10.61 3.06 2.85 2.04 4.76 4.82 5.75 8.34h10.34c-1.48-6.12-4.52-10.91-9.13-14.35-4.61-3.45-10.47-5.17-17.57-5.17-5.49 0-10.37 1.23-14.62 3.69-4.26 2.46-7.58 5.93-9.98 10.4-2.41 4.47-3.6 9.7-3.6 15.68m-36.29-29.88c-3.94 0-7.55.81-10.82 2.43-3.28 1.62-5.86 3.91-7.76 6.87v-8.24h-9.61v57.85h9.61v-31.98c0-6.05 1.5-10.66 4.49-13.83s7.02-4.75 12.09-4.75c5 0 8.94 1.53 11.83 4.59 2.89 3.06 4.33 7.48 4.33 13.25v32.73h9.5v-34.1c0-8.02-2.18-14.16-6.55-18.42-4.37-4.27-10.07-6.4-17.11-6.4m-51.37 25.76H697.4c.49-5.49 2.44-9.78 5.86-12.88 3.41-3.1 7.55-4.65 12.4-4.65 3.38 0 6.46.69 9.24 2.06 2.78 1.37 4.97 3.37 6.6 6.02 1.61 2.64 2.42 5.79 2.42 9.45m9.93 2.01c0-5.28-1.14-10.01-3.43-14.2-2.29-4.19-5.55-7.48-9.77-9.87-4.22-2.39-9.08-3.59-14.57-3.59-5.63 0-10.61 1.21-14.94 3.64s-7.69 5.89-10.08 10.4c-2.39 4.5-3.59 9.75-3.59 15.73s1.23 11.24 3.7 15.78 5.86 8.04 10.19 10.5c4.33 2.47 9.23 3.7 14.73 3.7 6.9 0 12.67-1.74 17.32-5.23 4.64-3.48 7.74-8.01 9.29-13.57h-10.34c-1.13 3.24-3.08 5.83-5.86 7.76-2.78 1.94-6.25 2.9-10.4 2.9-5.07 0-9.38-1.6-12.93-4.8-3.55-3.2-5.51-7.65-5.86-13.35h46.24c.19-2.04.3-3.97.3-5.8m-78.98 31.14h9.61v-57.85h-9.61v57.85zm4.96-67.25c1.76 0 3.26-.63 4.49-1.9 1.23-1.27 1.85-2.82 1.85-4.65s-.61-3.38-1.85-4.65c-1.23-1.27-2.73-1.9-4.49-1.9-1.83 0-3.38.63-4.65 1.9s-1.9 2.82-1.9 4.65.63 3.38 1.9 4.65 2.82 1.9 4.65 1.9m-34.47 18.79v-9.39h-9.61v57.85h9.61v-31.46c0-11.68 5.39-17.52 16.15-17.52h2.53v-9.92c-4.5 0-8.32.92-11.45 2.75-3.13 1.82-5.54 4.38-7.23 7.69m-32.79 15.31h-36.53c.49-5.49 2.44-9.78 5.86-12.88 3.41-3.1 7.55-4.65 12.4-4.65 3.38 0 6.46.69 9.23 2.06 2.78 1.37 4.98 3.37 6.6 6.02 1.63 2.64 2.44 5.79 2.44 9.45m9.93 2.01c0-5.28-1.14-10.01-3.43-14.2-2.29-4.19-5.54-7.48-9.76-9.87-4.22-2.39-9.08-3.59-14.57-3.59-5.63 0-10.61 1.21-14.94 3.64s-7.69 5.89-10.08 10.4c-2.39 4.5-3.59 9.75-3.59 15.73s1.23 11.24 3.7 15.78 5.86 8.04 10.19 10.5c4.33 2.47 9.23 3.7 14.73 3.7 6.9 0 12.67-1.74 17.31-5.23 4.65-3.48 7.74-8.01 9.29-13.57H601c-1.13 3.24-3.08 5.83-5.86 7.76-2.78 1.94-6.25 2.9-10.4 2.9-5.07 0-9.38-1.6-12.93-4.8-3.55-3.2-5.51-7.65-5.86-13.35h46.24c.2-2.04.31-3.97.31-5.8m-76.22 2c0 4.43-.88 8.29-2.64 11.56-1.76 3.27-4.14 5.77-7.13 7.49-2.99 1.73-6.28 2.59-9.87 2.59-3.52 0-6.78-.86-9.77-2.59-2.99-1.72-5.39-4.22-7.18-7.49-1.8-3.28-2.69-7.09-2.69-11.45 0-4.29.9-8.08 2.69-11.35 1.79-3.27 4.19-5.77 7.18-7.49 2.99-1.72 6.25-2.59 9.77-2.59 3.59 0 6.87.84 9.87 2.53 2.99 1.69 5.37 4.15 7.13 7.39 1.76 3.24 2.64 7.04 2.64 11.4m-39.27-18.05v-10.66h-9.61v85.3h9.61v-38.11c1.97 3.31 4.84 6.07 8.61 8.29 3.76 2.22 8.11 3.33 13.04 3.33 5.14 0 9.8-1.27 13.99-3.8 4.19-2.53 7.48-6.09 9.87-10.66 2.39-4.58 3.59-9.78 3.59-15.63 0-5.91-1.2-11.1-3.59-15.57-2.39-4.47-5.68-7.93-9.87-10.4-4.19-2.46-8.85-3.69-13.99-3.69-5 0-9.38 1.11-13.14 3.32-3.78 2.21-6.61 4.97-8.51 8.28m-19.65 47.19-18.69-29.24 18.58-28.61h-10.03l-13.09 21.43-13.73-21.43h-10.87l18.69 29.14-18.69 28.71h10.03l13.2-21.53 13.73 21.53h10.87zm-62.84-33.15H378c.49-5.49 2.44-9.78 5.86-12.88 3.42-3.1 7.55-4.65 12.41-4.65 3.38 0 6.45.69 9.23 2.06 2.78 1.37 4.98 3.37 6.6 6.02 1.61 2.64 2.42 5.79 2.42 9.45m9.92 2.01c0-5.28-1.14-10.01-3.43-14.2-2.29-4.19-5.54-7.48-9.77-9.87-4.22-2.39-9.08-3.59-14.57-3.59-5.63 0-10.61 1.21-14.94 3.64s-7.69 5.89-10.08 10.4c-2.39 4.5-3.59 9.75-3.59 15.73s1.23 11.24 3.69 15.78c2.46 4.54 5.86 8.04 10.19 10.5 4.33 2.47 9.24 3.7 14.73 3.7 6.89 0 12.67-1.74 17.31-5.23 4.65-3.48 7.74-8.01 9.29-13.57h-10.35c-1.13 3.24-3.08 5.83-5.86 7.76-2.78 1.94-6.25 2.9-10.4 2.9-5.07 0-9.38-1.6-12.93-4.8-3.56-3.2-5.51-7.65-5.86-13.35h46.24c.23-2.04.33-3.97.33-5.8M315.39 511.5H325v-78.12h-9.61v78.12zm-26.15-29.03c0 4.36-.88 8.18-2.64 11.45-1.76 3.27-4.13 5.77-7.12 7.49-2.99 1.73-6.28 2.59-9.87 2.59-3.59 0-6.86-.86-9.82-2.59-2.96-1.72-5.31-4.22-7.07-7.49-1.76-3.28-2.64-7.13-2.64-11.56 0-4.36.88-8.16 2.64-11.4 1.76-3.24 4.12-5.7 7.07-7.39s6.23-2.53 9.82-2.53 6.88.86 9.87 2.59c2.99 1.73 5.36 4.2 7.12 7.44 1.75 3.24 2.64 7.04 2.64 11.4m-48.99-.11c0 5.84 1.2 11.05 3.59 15.63 2.39 4.58 5.66 8.13 9.82 10.66s8.8 3.8 13.94 3.8c5 0 9.38-1.11 13.14-3.33 3.76-2.21 6.6-5.01 8.5-8.39v10.76h9.71v-57.85h-9.71v10.56c-1.83-3.31-4.61-6.05-8.34-8.24-3.74-2.18-8.13-3.27-13.2-3.27-5.14 0-9.8 1.23-13.99 3.69-4.19 2.46-7.48 5.93-9.87 10.4-2.39 4.48-3.59 9.67-3.59 15.58m-6.24-20.79v-7.92h-15.1v-14.57h-9.61v14.57h-7.49v7.92h7.49v34.1c0 5.63 1.34 9.68 4.01 12.14 2.67 2.46 6.69 3.69 12.04 3.69h8.66v-8.13h-7.08c-2.96 0-5.03-.58-6.23-1.74-1.2-1.16-1.79-3.15-1.79-5.96v-34.1h15.1zm-52.58 49.93h9.61v-57.85h-9.61v57.85zm4.97-67.25c1.76 0 3.25-.63 4.49-1.9 1.23-1.27 1.85-2.82 1.85-4.65s-.62-3.38-1.85-4.65c-1.23-1.27-2.73-1.9-4.49-1.9-1.83 0-3.38.63-4.65 1.9-1.27 1.27-1.9 2.82-1.9 4.65s.63 3.38 1.9 4.65c1.27 1.27 2.82 1.9 4.65 1.9m-31.17 38.22c0 4.36-.88 8.18-2.64 11.45-1.76 3.27-4.13 5.77-7.12 7.49-2.99 1.73-6.28 2.59-9.87 2.59-3.59 0-6.86-.86-9.82-2.59-2.96-1.72-5.31-4.22-7.07-7.49-1.76-3.28-2.64-7.13-2.64-11.56 0-4.36.88-8.16 2.64-11.4 1.76-3.24 4.12-5.7 7.07-7.39 2.96-1.69 6.23-2.53 9.82-2.53s6.88.86 9.87 2.59c2.99 1.73 5.36 4.2 7.12 7.44 1.76 3.24 2.64 7.04 2.64 11.4M133.7 452.7c-5.14 0-9.8 1.23-13.99 3.69-4.19 2.46-7.48 5.93-9.87 10.4-2.39 4.47-3.59 9.66-3.59 15.57 0 5.84 1.2 11.05 3.59 15.63 2.39 4.58 5.68 8.13 9.87 10.66 4.19 2.53 8.85 3.8 13.99 3.8 4.99 0 9.36-1.13 13.09-3.38 3.73-2.25 6.55-5.07 8.45-8.45v12.14c0 5.98-1.68 10.63-5.02 13.94-3.34 3.31-7.65 4.96-12.93 4.96-4.64 0-8.62-1.07-11.93-3.22-3.31-2.15-5.49-4.98-6.55-8.5h-9.5c.91 6.19 3.9 11.08 8.97 14.67s11.4 5.38 19 5.38c5.56 0 10.44-1.16 14.62-3.48s7.41-5.54 9.66-9.66 3.38-8.82 3.38-14.1v-59.12h-9.71v10.56c-1.83-3.31-4.63-6.05-8.39-8.24-3.76-2.16-8.15-3.25-13.14-3.25m-50.06 58.8h9.61v-57.85h-9.61v57.85zm4.96-67.25c1.76 0 3.26-.63 4.49-1.9 1.23-1.27 1.85-2.82 1.85-4.65s-.61-3.38-1.85-4.65c-1.23-1.27-2.73-1.9-4.49-1.9-1.83 0-3.38.63-4.65 1.9-1.27 1.27-1.9 2.82-1.9 4.65s.63 3.38 1.9 4.65c1.27 1.27 2.82 1.9 4.65 1.9m-57.48 59.33h-13.3v-57.85h13.3c9.43 0 16.66 2.57 21.69 7.71s7.55 12.28 7.55 21.43c0 9.08-2.5 16.13-7.5 21.17-4.99 5.03-12.24 7.54-21.74 7.54m0-65.66H8.21v73.58h22.91c8.02 0 14.97-1.46 20.85-4.38 5.88-2.92 10.38-7.14 13.51-12.67 3.13-5.52 4.7-12.05 4.7-19.58 0-7.53-1.57-14.08-4.7-19.64-3.13-5.56-7.64-9.83-13.51-12.82s-12.82-4.49-20.85-4.49"/></g></svg>